<?xml version="1.0" encoding="UTF-8"?>
<svg xmlns="http://www.w3.org/2000/svg" width="160" height="160" viewBox="54 30 92 92" class="niro-character niro-normal is-animated" aria-hidden="true"><defs><linearGradient id="_R_0_-iris" x1="0" y1="0" x2="0" y2="1"><stop offset="0" stop-color="#1d4ed8"></stop><stop offset="0.55" stop-color="#0ea5e9"></stop><stop offset="1" stop-color="#67e8f9"></stop></linearGradient><linearGradient id="_R_0_-spark" x1="0" y1="0" x2="1" y2="1"><stop offset="0" stop-color="#67e8f9"></stop><stop offset="1" stop-color="#2563eb"></stop></linearGradient><radialGradient id="_R_0_-glow"><stop offset="0" stop-color="#67e8f9" stop-opacity="0.6"></stop><stop offset="1" stop-color="#67e8f9" stop-opacity="0"></stop></radialGradient><linearGradient id="_R_0_-hoodie" x1="0" y1="0" x2="0" y2="1"><stop offset="0" stop-color="#34449a"></stop><stop offset="0.35" stop-color="#1f2b6b"></stop><stop offset="1" stop-color="#172052"></stop></linearGradient></defs><g class="niro-float"><path d="M56 92 C52 52 74 28 100 28 C126 28 148 52 144 92 C144 104 141 114 136 121 C133 113 131 107 128 103 L72 103 C69 107 67 113 64 121 C59 114 56 104 56 92 Z" fill="#121a36"></path><g transform="rotate(0 100 120)"><ellipse cx="64" cy="92" rx="5" ry="8" fill="#eabfa6"></ellipse><ellipse cx="136" cy="92" rx="5" ry="8" fill="#eabfa6"></ellipse><path d="M64 84 C64 58 80 42 100 42 C120 42 136 58 136 84 C136 104 128 120 114 129 Q100 137 86 129 C72 120 64 104 64 84 Z" fill="#f7d9c4"></path><g class="niro-eyes"><g><clipPath id="_R_0_-eye-85"><ellipse cx="85" cy="95" rx="10.4" ry="9"></ellipse></clipPath><ellipse cx="85" cy="95" rx="10.4" ry="9" fill="#fff"></ellipse><g clip-path="url(#_R_0_-eye-85)"><ellipse cx="85" cy="96" rx="7" ry="8.2" fill="url(#_R_0_-iris)"></ellipse><ellipse cx="85" cy="96.5" rx="3" ry="3.9000000000000004" fill="#0b1330"></ellipse><circle cx="87.4" cy="92.4" r="2" fill="#fff"></circle><circle cx="83" cy="98.4" r="0.9" fill="#fff" opacity="0.85"></circle></g><path d="M74 93.5 Q85 80 96 92.5" fill="none" stroke="#121a36" stroke-width="2.9" stroke-linecap="round"></path><path d="M78 102.2 Q85 104 92 102.2" fill="none" stroke="#121a36" stroke-opacity="0.3" stroke-width="1" stroke-linecap="round"></path></g><g><clipPath id="_R_0_-eye-115"><ellipse cx="115" cy="95" rx="10.4" ry="9"></ellipse></clipPath><ellipse cx="115" cy="95" rx="10.4" ry="9" fill="#fff"></ellipse><g clip-path="url(#_R_0_-eye-115)"><ellipse cx="115" cy="96" rx="7" ry="8.2" fill="url(#_R_0_-iris)"></ellipse><ellipse cx="115" cy="96.5" rx="3" ry="3.9000000000000004" fill="#0b1330"></ellipse><circle cx="117.4" cy="92.4" r="2" fill="#fff"></circle><circle cx="113" cy="98.4" r="0.9" fill="#fff" opacity="0.85"></circle></g><path d="M104 93.5 Q115 80 126 92.5" fill="none" stroke="#121a36" stroke-width="2.9" stroke-linecap="round"></path><path d="M108 102.2 Q115 104 122 102.2" fill="none" stroke="#121a36" stroke-opacity="0.3" stroke-width="1" stroke-linecap="round"></path></g></g><path d="M100 101 Q98.4 105 100.6 106" fill="none" stroke="#eabfa6" stroke-width="1.6" stroke-linecap="round"></path><path d="M93 113.5 Q100 119 107 113.5" fill="none" stroke="#7c3b40" stroke-width="2.2" stroke-linecap="round"></path><path d="M58 88 C54 54 76 32 102 32 C128 32 148 54 142 88 C138 80 135 74 130 70 C130 76 128 80 124 84 C121 76 117 70 111 66 C111 72 108 78 103 82 C101 74 96 68 90 64 C90 70 86 76 81 80 C79 73 75 69 70 67 C69 74 66 80 62 84 Z" fill="#121a36"></path><path d="M62 84 C58 100 60 114 66 124 C66 110 68 98 70 88 Z" fill="#121a36"></path><path d="M138 84 C142 100 140 114 134 124 C134 110 132 98 130 88 Z" fill="#121a36"></path><path d="M100 33 C95 22 102 15 111 13 C105 20 105 26 107 34 Z" fill="#121a36"></path><path d="M78 46 Q90 38 104 40" fill="none" stroke="#2a3566" stroke-width="3" stroke-linecap="round" opacity="0.8"></path><g transform="translate(0 4)"><path d="M74 78 Q85 73 95 77" fill="none" stroke="#121a36" stroke-width="3" stroke-linecap="round"></path><path d="M105 77 Q115 73 126 78" fill="none" stroke="#121a36" stroke-width="3" stroke-linecap="round"></path></g><g class="niro-strand"><path d="M101 33 C112 39 118 54 112 80 C110 71 107 64 103 59 C105 50 104 41 101 33 Z" fill="#22d3ee"></path><path d="M105 40 C111 47 113 57 111 68" fill="none" stroke="#a5f3fc" stroke-width="1.6" stroke-linecap="round"></path></g></g></g></svg>
